<?xml version="1.0" encoding="UTF-8" standalone="no"?>
<!-- Created with Inkscape (http://www.inkscape.org/) -->

<svg
   width="105.93855mm"
   height="126.43705mm"
   viewBox="0 0 105.93853 126.43705"
   version="1.1"
   id="svg5"
   xml:space="preserve"
   inkscape:export-filename="bitmapa.svg"
   inkscape:export-xdpi="96"
   inkscape:export-ydpi="96"
   sodipodi:docname="bitmapa.svg"
   xmlns:inkscape="http://www.inkscape.org/namespaces/inkscape"
   xmlns:sodipodi="http://sodipodi.sourceforge.net/DTD/sodipodi-0.dtd"
   xmlns="http://www.w3.org/2000/svg"
   xmlns:svg="http://www.w3.org/2000/svg"><sodipodi:namedview
     id="namedview7"
     pagecolor="#ffffff"
     bordercolor="#000000"
     borderopacity="0.25"
     inkscape:showpageshadow="2"
     inkscape:pageopacity="0.0"
     inkscape:pagecheckerboard="0"
     inkscape:deskcolor="#d1d1d1"
     inkscape:document-units="mm"
     showgrid="false"
     showguides="true"><sodipodi:guide
       position="107.78856,62.26528"
       orientation="0,-1"
       id="guide323"
       inkscape:locked="false" /><sodipodi:guide
       position="52.736614,75.239302"
       orientation="1,0"
       id="guide325"
       inkscape:locked="false" /></sodipodi:namedview><defs
     id="defs2" /><g
     inkscape:label="Warstwa 1"
     inkscape:groupmode="layer"
     id="layer1"
     transform="translate(-54.380622,-68.192226)"
     style="fill:#000000"><path
       style="display:inline;fill:#ffffff;stroke-width:0.352778;image-rendering:auto"
       d="M 105.36064,193.68596 C 102.44304,191.71628 96.04861,186.3002 92.169296,182.5129 78.495297,169.16323 66.819791,149.70368 60.42805,129.60982 57.120486,119.21174 54.395384,102.58323 54.391754,92.776476 c -0.0014,-3.69541 -0.411466,-3.27376 3.879349,-3.98864 7.127883,-1.18754 18.075227,-4.22595 24.193283,-6.71479 8.692671,-3.536182 15.438481,-7.285342 21.414554,-11.901681 1.20646,-0.931953 2.38673,-1.810778 2.62283,-1.952944 0.25671,-0.154577 1.21983,0.385435 2.3959,1.343358 6.37431,5.191942 16.72413,10.684686 26.80816,14.227327 5.43682,1.91002 15.04934,4.2591 22.00806,5.37827 l 2.60528,0.41901 -0.24074,4.28161 c -1.35249,24.053554 -7.65134,44.995364 -19.4323,64.606624 -5.69111,9.47377 -14.4345,20.39576 -21.18069,26.45834 -3.36653,3.02538 -11.848,9.68931 -12.34091,9.6963 -0.19749,0.003 -0.99124,-0.42169 -1.76389,-0.9433 z m 4.61004,-12.0162 c 4.5471,-3.76196 10.69649,-10.18287 15.16859,-15.83833 1.7129,-2.16615 6.50962,-8.83993 6.50962,-9.05697 0,-0.10866 0.9764,-1.75494 2.16978,-3.65842 3.8935,-6.21026 8.22758,-15.44082 10.90095,-23.21642 2.81998,-8.20203 5.34879,-20.60524 6.1563,-30.195204 l 0.22555,-2.67853 -4.17004,-0.98148 c -5.2871,-1.24439 -14.11372,-3.95404 -18.45754,-5.6662 -5.79034,-2.28231 -15.59092,-7.45448 -19.45005,-10.26459 -0.89911,-0.654714 -1.75672,-1.190389 -1.90579,-1.190389 -0.14906,0 -1.79467,0.979167 -3.6569,2.175919 -4.209833,2.70544 -14.315629,7.85769 -18.752088,9.5604 -4.269889,1.63879 -12.925038,4.31015 -17.392779,5.36818 -1.913138,0.45307 -3.596202,0.95709 -3.740139,1.12005 -0.375839,0.4255 0.216739,6.789234 1.243037,13.349064 2.300916,14.70689 7.148047,28.27162 15.190136,42.50973 2.76177,4.88957 7.120848,11.1387 11.063881,15.86108 5.107771,6.11732 14.521032,14.83058 16.022022,14.83058 0.233,0 1.52696,-0.91281 2.87546,-2.02847 z m -5.01303,-3.93068 C 99.843881,173.62667 92.726907,165.64832 87.930413,158.65101 79.013185,145.64223 72.230214,129.5317 69.221132,114.21379 c -1.189101,-6.05319 -2.248909,-13.64703 -1.968028,-14.10151 0.109072,-0.176484 0.712428,-0.425844 1.340796,-0.554114 8.30289,-1.69502 22.772879,-7.29267 30.775817,-11.90547 6.245923,-3.60008 7.243903,-4.14336 7.611273,-4.14336 0.22053,0 2.09071,1.00985 4.15596,2.24411 5.88386,3.5164 7.99765,4.60949 13.1036,6.77621 5.20478,2.20864 15.52011,5.69099 19.84376,6.69904 l 2.73402,0.63742 v 1.273074 c 0,4.18725 -1.83188,14.40453 -3.89189,21.70697 -4.74735,16.82864 -13.08461,32.29547 -24.32195,45.12078 -4.20633,4.80073 -10.82072,11.14518 -11.61938,11.14518 -0.17605,0 -1.0884,-0.61787 -2.02746,-1.37304 z"
       id="path179"
       inkscape:label="path179" /><text
       xml:space="preserve"
       style="font-style:normal;font-variant:normal;font-weight:normal;font-stretch:normal;font-size:38.1px;font-family:Poppins;-inkscape-font-specification:Poppins;fill:#000000;stroke-width:0.264583"
       x="86.428932"
       y="142.53282"
       id="text321"><tspan
         sodipodi:role="line"
         id="tspan319"
         style="font-style:normal;font-variant:normal;font-weight:normal;font-stretch:normal;font-family:Poppins;-inkscape-font-specification:Poppins;fill:#000000;stroke-width:0.264583"
         x="86.428932"
         y="142.53282">ZS</tspan></text></g>
         </svg>
